<?xml version="1.0" encoding="UTF-8"?>
<svg version="1.1" xmlns="http://www.w3.org/2000/svg" width="500" height="500">
<path d="M0 0 C3.49015716 1.95821572 6.2603012 4.01331846 9.08049011 6.84671021 C10.24761787 8.01188171 10.24761787 8.01188171 11.43832397 9.20059204 C12.27747345 10.04850311 13.11662292 10.89641418 13.98120117 11.77001953 C14.87604721 12.66617981 15.77089325 13.56234009 16.69285583 14.48565674 C18.63335836 16.42908472 20.57067132 18.3756175 22.50554466 20.32464981 C25.56367215 23.40508821 28.6289134 26.47838167 31.69514465 29.55075073 C36.54131206 34.40828377 41.38277963 39.27047006 46.22221023 44.13471401 C54.8973536 52.85425428 63.57815585 61.56815235 72.26414281 70.27689064 C75.31282134 73.33398715 78.35866869 76.39386915 81.40228498 79.45600533 C82.8377043 80.89949226 84.27423351 82.34186355 85.71125793 83.78375244 C87.46552476 85.54406651 89.21795845 87.30620995 90.96826172 89.07046509 C91.73788742 89.84160645 92.50751312 90.6127478 93.30046082 91.40725708 C94.30561375 92.41768916 94.30561375 92.41768916 95.33107281 93.44853401 C96.93326845 95.08390013 96.93326845 95.08390013 99 96 C99 96.66 99 97.32 99 98 C99.66 98 100.32 98 101 98 C101 98.66 101 99.32 101 100 C101.66 100 102.32 100 103 100 C104.43852845 102.8770569 104.20253905 105.42047298 104.28125 108.63574219 C104.29929687 109.31936325 104.31734375 110.00298431 104.3359375 110.70732117 C104.39504252 112.98708388 104.44746359 115.26695221 104.5 117.546875 C104.54056926 119.15367751 104.5815929 120.76046861 104.62304688 122.36724854 C104.73195556 126.63001235 104.83539624 130.89289116 104.9375 135.15582275 C105.09897812 141.85826843 105.26871345 148.56051363 105.43777466 155.26277161 C105.47922223 156.90907782 105.52046202 158.55538928 105.56149292 160.20170593 C105.95085181 175.80445415 106.44426344 191.40229754 107 207 C108.2865348 191.59480583 109.10543338 176.3285926 109.02361298 160.87066078 C108.82026582 100.52156703 108.82026582 100.52156703 123.61621094 85.33398438 C128.52684306 80.83230478 133.71266979 76.80975621 139.40136719 73.3425293 C147.63565869 68.19818306 154.25767767 60.86231087 161.04450607 54.00009346 C162.68112184 52.34587027 164.32144285 50.69540217 165.96279907 49.04588318 C170.62260816 44.36178781 175.27649385 39.6718379 179.92626953 34.9777832 C182.78418934 32.09316198 185.64689709 29.21336581 188.51265335 26.33653069 C189.60143595 25.24153116 190.68831622 24.14463675 191.77326584 23.04583931 C193.281049 21.51894914 194.79479173 19.99821804 196.31005859 18.47875977 C197.16973236 17.61162857 198.02940613 16.74449738 198.91513062 15.85108948 C201 14 201 14 203 14 C203 13.34 203 12.68 203 12 C204.609375 10.4140625 204.609375 10.4140625 206.75 8.625 C209.09532154 6.65129631 211.19468988 4.78367792 213.25 2.5 C213.8275 2.005 214.405 1.51 215 1 C217.21844626 1.19015254 218.41522155 1.41522155 220 3 C220.10754275 4.91207365 220.14412213 6.82815448 220.15390015 8.7432251 C220.16250061 9.99108292 220.17110107 11.23894073 220.17996216 12.52461243 C220.1843978 13.92037922 220.18869612 15.31614646 220.19287109 16.71191406 C220.20076883 18.17191261 220.20903757 19.63190919 220.21765137 21.09190369 C220.24391311 25.89979172 220.25918473 30.70768863 220.2734375 35.515625 C220.27879578 37.16885128 220.28417328 38.8220775 220.28956985 40.47530365 C220.31120612 47.35173919 220.32994314 54.22817234 220.34119225 61.10463333 C220.357432 70.96806498 220.39060152 80.83110266 220.44759309 90.69438577 C220.48627317 97.62436313 220.50582272 104.55423505 220.51111281 111.48431754 C220.51476944 115.62563132 220.52682269 119.76652534 220.55921555 123.90772247 C220.58926201 127.80498941 220.5956207 131.70158189 220.58383179 135.5989399 C220.58361075 137.02881698 220.59194112 138.45872503 220.60948563 139.88849449 C220.63214809 141.84181171 220.62090687 143.79543428 220.60800171 145.74884033 C220.61296693 147.38814451 220.61296693 147.38814451 220.61803246 149.06056595 C219.792636 152.98624725 217.98823748 154.40681443 215 157 C213.91880758 158.08296715 212.83782517 159.16614405 211.75712585 160.24960327 C211.16440887 160.84376541 210.57169189 161.43792755 209.96101379 162.0500946 C209.3276561 162.68502335 208.6942984 163.31995209 208.04174805 163.97412109 C201.10739115 170.92484906 194.17046208 177.87300423 187.23208904 184.81972313 C183.04117237 189.01586019 178.8511964 193.2129278 174.66333008 197.41210938 C170.60084701 201.48549475 166.53589252 205.55639894 162.46924782 209.62562943 C160.92591655 211.17079944 159.38346139 212.71684505 157.84192467 214.26380539 C155.67911153 216.4339284 153.51313696 218.60084989 151.34643555 220.76708984 C150.71915054 221.39797012 150.09186554 222.0288504 149.4455719 222.67884827 C145.70039116 226.41546519 141.83787743 229.95833725 137.82246113 233.40338421 C134.85600158 236.0022304 132.08702419 238.7892499 129.3125 241.58984375 C128.72452637 242.17923233 128.13655273 242.76862091 127.53076172 243.37586975 C125.68477639 245.22737618 123.84233108 247.08235817 122 248.9375 C120.7359115 250.20661373 119.47159044 251.47549589 118.20703125 252.74414062 C115.13533276 255.8267632 112.06679992 258.91250428 109 262 C104.273979 260.56227574 101.38093666 257.78956814 98.00390625 254.34448242 C97.42599335 253.7670076 96.84808044 253.18953278 96.25265503 252.59455872 C94.34873684 250.68855508 92.4556642 248.77214935 90.5625 246.85546875 C89.23706705 245.52443543 87.91096637 244.19406674 86.58422852 242.86433411 C83.09427831 239.36294039 79.61342243 235.8526399 76.13439941 232.34039307 C72.60280652 228.77820044 69.0627998 225.22439203 65.5234375 221.66992188 C59.80132286 215.92146067 54.08434354 210.16795249 48.37423706 204.40756226 C47.37408197 203.39881216 46.37209857 202.39187069 45.36807728 201.38696861 C44.13032456 200.13212417 42.92496294 198.84553129 41.72380066 197.55561829 C39.41966579 195.39375333 37.18573496 193.63858945 34.62153625 191.81469727 C17.33818925 179.50596166 -1.87627963 164.38478648 -5.67176878 142.32711124 C-8.4890265 122.73056964 -7.24699108 102.52707969 -6.19474781 82.83526134 C-5.734467 74.0323413 -5.54727036 65.22883121 -5.36926997 56.41646004 C-5.09749891 43.44844202 -4.73957747 30.48040384 -4.10764503 17.52451134 C-4.04121205 16.13551441 -3.97952759 14.74628129 -3.92286301 13.35685158 C-3.84408455 11.46738988 -3.74433431 9.57883673 -3.64338684 7.69042969 C-3.59160184 6.63329773 -3.53981684 5.57616577 -3.48646259 4.48699951 C-3.32592994 3.66628967 -3.16539728 2.84557983 -3 2 C-2.01 1.34 -1.02 0.68 0 0 Z " fill="#000000" transform="translate(203,198)"/>
<path d="M0 0 C2.8795778 1.30520985 4.93784769 2.69055068 7.16299438 4.92921448 C7.76300766 5.52792358 8.36302094 6.12663269 8.98121643 6.7434845 C9.62759567 7.39862534 10.27397491 8.05376617 10.93994141 8.72875977 C11.62981644 9.41994904 12.31969147 10.11113831 13.0304718 10.82327271 C15.30879946 13.10808957 17.58007302 15.39979276 19.8515625 17.69140625 C21.43238308 19.27849662 23.01371951 20.86507334 24.59555054 22.45115662 C28.75828607 26.62719765 32.91541885 30.80876825 37.07098389 34.99194336 C43.72878484 41.6928621 50.39331962 48.38706728 57.06107712 55.07807732 C59.39341595 57.42066894 61.72232891 59.76662777 64.05093384 62.1129303 C65.47345731 63.54227905 66.8960893 64.97151982 68.31884766 66.40063477 C69.29448921 67.38638237 69.29448921 67.38638237 70.2898407 68.39204407 C70.88421432 68.98793335 71.47858795 69.58382263 72.0909729 70.19776917 C72.60751245 70.71782815 73.12405201 71.23788713 73.65624428 71.77370548 C75.00408993 73.11562194 75.00408993 73.11562194 77 74 C77 74.66 77 75.32 77 76 C77.52561523 76.22429687 78.05123047 76.44859375 78.59277344 76.6796875 C84.06854602 79.68303214 88.66054602 84.07097347 93.26464844 88.24609375 C94.56430256 89.39423876 95.89495453 90.50843131 97.25683594 91.58203125 C103.27287711 96.35225179 108.12716747 101.38664793 109.59667969 109.15374756 C110.2035337 116.77256008 109.7981902 124.36179727 109.38021469 131.9807682 C108.82505203 142.31241493 108.84720326 152.64704042 108.80045319 162.99106598 C108.76827723 168.8835606 108.70556846 174.77571424 108.64453125 180.66796875 C108.62053417 183.06298757 108.59660877 185.45800711 108.57275391 187.85302734 C108.55477753 189.64450195 108.55477753 189.64450195 108.53643799 191.47216797 C108.47489634 197.6415897 108.41527524 203.81103 108.35546875 209.98046875 C108.23880641 221.98699755 108.12009681 233.99350509 108 246 C104.91228021 246.31713378 103.44531957 246.31594526 100.87266922 244.49070168 C100.16326565 243.77798796 99.45386208 243.06527424 98.72296143 242.33096313 C97.90136032 241.51768051 97.07975922 240.70439789 96.23326111 239.86647034 C94.90204979 238.51065102 94.90204979 238.51065102 93.54394531 237.12744141 C92.59024338 236.17396619 91.63544726 235.22158435 90.67964172 234.2702179 C88.08796249 231.68424769 85.51207068 229.08305257 82.93883991 226.47874117 C80.245369 223.75773923 77.53813639 221.05049833 74.8324585 218.34164429 C70.29163672 213.79161785 65.76008638 209.23253036 61.23486328 204.66699219 C54.8484892 198.22377519 48.44490067 191.79787848 42.03811884 185.37496305 C37.60532927 180.92972536 33.17666443 176.48037906 28.74878597 172.03025007 C27.67392397 170.95002325 26.59894741 169.86991041 25.52385807 168.78990984 C22.46031317 165.71207544 19.39935817 162.63171174 16.3425808 159.54715538 C14.97154634 158.16469308 13.59811437 156.78460978 12.22462463 155.40458679 C11.41430283 154.58566452 10.60398102 153.76674225 9.769104 152.92300415 C8.7072608 151.8528025 8.7072608 151.8528025 7.62396622 150.76098061 C4.34512464 147.20550244 4.72112345 143.47814892 4.53515625 138.87280273 C4.49760223 138.03174988 4.46004822 137.19069702 4.4213562 136.32415771 C4.29750699 133.52747091 4.18005206 130.73055173 4.0625 127.93359375 C3.9770755 125.98175698 3.89121289 124.02993934 3.80493164 122.07814026 C3.57782974 116.91777727 3.35595725 111.75720295 3.13537598 106.59655762 C2.78372189 98.39055571 2.42394308 90.18490571 2.06466675 81.9792347 C1.94079562 79.13428441 1.81895951 76.28925316 1.69750977 73.44419861 C1.23140696 62.62250598 0.67436715 51.81075454 0 41 C-0.05185204 42.94652466 -0.05185204 42.94652466 -0.10475159 44.93237305 C-0.43527947 57.1749138 -0.80130739 69.41594896 -1.20192051 81.65640259 C-1.40673549 87.94912462 -1.59911957 94.24171124 -1.76293945 100.53564453 C-1.92156284 106.6122357 -2.11304182 112.68699032 -2.32713127 118.76187134 C-2.40298026 121.07708537 -2.46707818 123.39271585 -2.51910591 125.70858765 C-2.59415042 128.95865694 -2.71128848 132.20472105 -2.83813477 135.453125 C-2.85037079 136.40619034 -2.86260681 137.35925568 -2.87521362 138.34120178 C-3.22647021 145.60087248 -5.79937743 149.08852995 -11 154 C-11.813479 154.85094238 -12.62695801 155.70188477 -13.46508789 156.57861328 C-14.21008545 157.31837402 -14.95508301 158.05813477 -15.72265625 158.8203125 C-17.00934204 160.10204346 -17.00934204 160.10204346 -18.32202148 161.40966797 C-19.22637939 162.30572754 -20.1307373 163.20178711 -21.0625 164.125 C-22.02251375 165.0805937 -22.98222453 166.03649184 -23.94165039 166.99267578 C-27.46770473 170.50550592 -30.9992429 174.01280573 -34.53063965 177.52026367 C-37.52691208 180.49665517 -40.52102231 183.47519157 -43.51242065 186.45648193 C-44.8988534 187.83653133 -46.28837298 189.21347744 -47.67797852 190.59033203 C-52.02702162 194.92262762 -56.2083964 199.31286725 -60.20718384 203.96896362 C-66.41378209 211.00026281 -73.21663912 217.52530658 -79.82543945 224.17553711 C-81.74590978 226.10946829 -83.65879732 228.05046802 -85.56567383 229.99780273 C-88.32531753 232.81594532 -91.10504557 235.61374694 -93.88671875 238.41015625 C-95.16804939 239.72549095 -95.16804939 239.72549095 -96.4752655 241.06739807 C-97.27322037 241.8625029 -98.07117523 242.65760773 -98.89331055 243.47680664 C-99.59167526 244.18325821 -100.29003998 244.88970978 -101.00956726 245.61756897 C-101.99483147 246.30187233 -101.99483147 246.30187233 -103 247 C-105.12440205 246.58640194 -105.12440205 246.58640194 -107 246 C-107.16368499 228.14533122 -107.28704052 210.29085777 -107.3626852 192.43560028 C-107.39874558 184.14463689 -107.44788852 175.85414029 -107.52807617 167.56347656 C-107.59795298 160.33539972 -107.64303254 153.10766101 -107.65861946 145.87925577 C-107.66772792 142.05337052 -107.68905847 138.22845237 -107.7401104 134.40287781 C-107.78782945 130.79764739 -107.80224089 127.1937769 -107.79175377 123.58826065 C-107.79458061 121.64300381 -107.83214525 119.69789323 -107.87094116 117.75302124 C-107.82550371 112.21821224 -107.75382915 108.10894384 -104.07373047 103.78198242 C-102.73865196 102.49716686 -101.37874317 101.23784205 -100 100 C-98.44849455 98.41918899 -96.9028152 96.83264671 -95.36183167 95.24157715 C-93.58565562 93.46253208 -91.80676126 91.68619818 -90.02563477 89.91210938 C-89.03917801 88.92593533 -88.05294265 87.93953977 -87.06690979 86.95294189 C-84.41261756 84.29836494 -81.75527255 81.64686377 -79.09733319 78.99593925 C-76.31153166 76.21642572 -73.528597 73.43404468 -70.74534607 70.65197754 C-65.48477351 65.39450232 -60.22165901 60.13957954 -54.95760721 54.88558817 C-48.96040686 48.89959874 -42.96607512 42.91074017 -36.97197258 36.92164898 C-24.65115186 24.61125646 -12.32676619 12.30443908 0 0 Z " fill="#FE5C00" transform="translate(197,31)"/>
<path d="M0 0 C0.33 0 0.66 0 1 0 C1 2.64 1 5.28 1 8 C0.67 8 0.34 8 0 8 C0 5.36 0 2.72 0 0 Z " fill="#CF6F6F" transform="translate(0,148)"/>
<path d="M0 0 C0.33 0 0.66 0 1 0 C1 1.65 1 3.3 1 5 C0.67 5 0.34 5 0 5 C0 3.35 0 1.7 0 0 Z " fill="#CC9966" transform="translate(0,58)"/>
<path d="M0 0 C1 4 1 4 1 4 Z " fill="#DFDFDF" transform="translate(0,492)"/>
<path d="M0 0 C1 4 1 4 1 4 Z " fill="#FF3F3F" transform="translate(0,311)"/>
<path d="M0 0 C1 4 1 4 1 4 Z " fill="#BF1F1F" transform="translate(0,180)"/>
<path d="" fill="#FF7F7F" transform="translate(0,0)"/>
<path d="" fill="#AA5555" transform="translate(0,0)"/>
<path d="" fill="#FFAAAA" transform="translate(0,0)"/>
<path d="" fill="#FF0000" transform="translate(0,0)"/>
<path d="" fill="#FF0000" transform="translate(0,0)"/>
<path d="" fill="#FF0000" transform="translate(0,0)"/>
<path d="" fill="#AAAAAA" transform="translate(0,0)"/>
<path d="" fill="#FFFFFF" transform="translate(0,0)"/>
<path d="" fill="#FFFFFF" transform="translate(0,0)"/>
<path d="" fill="#FFFFFF" transform="translate(0,0)"/>
<path d="" fill="#FFFFFF" transform="translate(0,0)"/>
<path d="" fill="#FFFFFF" transform="translate(0,0)"/>
<path d="" fill="#FFFFFF" transform="translate(0,0)"/>
<path d="" fill="#FF0000" transform="translate(0,0)"/>
<path d="" fill="#FF0000" transform="translate(0,0)"/>
<path d="" fill="#FF0000" transform="translate(0,0)"/>
<path d="" fill="#FF0000" transform="translate(0,0)"/>
<path d="" fill="#FF0000" transform="translate(0,0)"/>
<path d="" fill="#FF0000" transform="translate(0,0)"/>
<path d="" fill="#FF0000" transform="translate(0,0)"/>
<path d="" fill="#FF0000" transform="translate(0,0)"/>
<path d="" fill="#FFFFFF" transform="translate(0,0)"/>
<path d="" fill="#FF7F7F" transform="translate(0,0)"/>
<path d="" fill="#FF0000" transform="translate(0,0)"/>
<path d="" fill="#FF0000" transform="translate(0,0)"/>
<path d="" fill="#FF0000" transform="translate(0,0)"/>
<path d="" fill="#FFFFFF" transform="translate(0,0)"/>
<path d="" fill="#FF7F7F" transform="translate(0,0)"/>
<path d="" fill="#FF7F7F" transform="translate(0,0)"/>
<path d="" fill="#FFFF7F" transform="translate(0,0)"/>
<path d="" fill="#FF7F00" transform="translate(0,0)"/>
<path d="" fill="#FFFF7F" transform="translate(0,0)"/>
<path d="" fill="#FFFFFF" transform="translate(0,0)"/>
<path d="" fill="#FFFFFF" transform="translate(0,0)"/>
<path d="" fill="#FFFFFF" transform="translate(0,0)"/>
<path d="" fill="#FFFFFF" transform="translate(0,0)"/>
<path d="" fill="#FF0000" transform="translate(0,0)"/>
<path d="" fill="#FF0000" transform="translate(0,0)"/>
<path d="" fill="#FF0000" transform="translate(0,0)"/>
<path d="" fill="#FF0000" transform="translate(0,0)"/>
<path d="" fill="#FF0000" transform="translate(0,0)"/>
<path d="" fill="#FF0000" transform="translate(0,0)"/>
<path d="" fill="#FFFFFF" transform="translate(0,0)"/>
<path d="" fill="#FF0000" transform="translate(0,0)"/>
<path d="" fill="#FF0000" transform="translate(0,0)"/>
<path d="" fill="#FF0000" transform="translate(0,0)"/>
<path d="" fill="#FF0000" transform="translate(0,0)"/>
<path d="" fill="#FF0000" transform="translate(0,0)"/>
<path d="" fill="#FF0000" transform="translate(0,0)"/>
<path d="" fill="#FFFFFF" transform="translate(0,0)"/>
<path d="" fill="#FFFFFF" transform="translate(0,0)"/>
<path d="" fill="#FFFFFF" transform="translate(0,0)"/>
</svg>
